<?xml version="1.0"?>
<svg xmlns="http://www.w3.org/2000/svg" width="29" height="29" viewBox="0 0 29 29" fill="none">
<g clip-path="url(#clip0_4303_7168)">
<path d="M14.8921 0.867188C7.15612 0.867188 0.884766 7.13854 0.884766 14.8745C0.884766 21.4434 5.40745 26.9555 11.5085 28.4694V19.1551H8.62016V14.8745H11.5085V13.03C11.5085 8.26249 13.6662 6.05269 18.3468 6.05269C19.2343 6.05269 20.7656 6.22695 21.392 6.40064V10.2807C21.0615 10.2459 20.4872 10.2286 19.7739 10.2286C17.4773 10.2286 16.5898 11.0987 16.5898 13.3606V14.8745H21.1651L20.379 19.1551H16.5898V28.7793C23.5256 27.9416 28.9 22.0362 28.9 14.8745C28.8994 7.13854 22.628 0.867188 14.8921 0.867188Z" fill="#FFFCF2"/>
</g>
<defs>
<clipPath id="clip0_4303_7168">
<rect width="28.0146" height="28.0146" fill="white" transform="translate(0.884766 0.867188)"/>
</clipPath>
</defs>
</svg>
