<?xml version="1.0"?>
<svg xmlns="http://www.w3.org/2000/svg" width="29" height="29" viewBox="0 0 29 29" fill="none">
<g clip-path="url(#clip0_4303_7170)">
<path d="M14.9214 3.3896C18.664 3.3896 19.1072 3.40601 20.579 3.47167C21.9469 3.53186 22.6856 3.76167 23.178 3.95317C23.8292 4.20487 24.2997 4.51128 24.7867 4.99825C25.2791 5.4907 25.5801 5.95578 25.8318 6.6069C26.0233 7.09935 26.2531 7.84349 26.3133 9.20592C26.3789 10.6833 26.3953 11.1265 26.3953 14.8636C26.3953 18.6061 26.3789 19.0493 26.3133 20.5212C26.2531 21.8891 26.0233 22.6278 25.8318 23.1202C25.5801 23.7713 25.2737 24.2419 24.7867 24.7289C24.2942 25.2213 23.8292 25.5222 23.178 25.7739C22.6856 25.9655 21.9415 26.1953 20.579 26.2554C19.1017 26.3211 18.6585 26.3375 14.9214 26.3375C11.1788 26.3375 10.7356 26.3211 9.26374 26.2554C7.89583 26.1953 7.15717 25.9655 6.66472 25.7739C6.0136 25.5222 5.54304 25.2158 5.05607 24.7289C4.56362 24.2364 4.26269 23.7713 4.01099 23.1202C3.81949 22.6278 3.58968 21.8836 3.52949 20.5212C3.46383 19.0439 3.44742 18.6007 3.44742 14.8636C3.44742 11.121 3.46383 10.6778 3.52949 9.20592C3.58968 7.83801 3.81949 7.09935 4.01099 6.6069C4.26269 5.95578 4.5691 5.48522 5.05607 4.99825C5.54851 4.50581 6.0136 4.20487 6.66472 3.95317C7.15717 3.76167 7.90131 3.53186 9.26374 3.47167C10.7356 3.40601 11.1788 3.3896 14.9214 3.3896ZM14.9214 0.867188C11.1186 0.867188 10.6426 0.883602 9.14883 0.949262C7.66055 1.01492 6.63736 1.25567 5.75096 1.60038C4.82626 1.96151 4.04382 2.43754 3.26685 3.21998C2.48441 3.99695 2.00838 4.77939 1.64726 5.69862C1.30255 6.59049 1.0618 7.60821 0.996137 9.09648C0.930477 10.5957 0.914062 11.0717 0.914062 14.8745C0.914062 18.6773 0.930477 19.1533 0.996137 20.647C1.0618 22.1353 1.30255 23.1585 1.64726 24.0449C2.00838 24.9696 2.48441 25.7521 3.26685 26.529C4.04382 27.306 4.82626 27.7875 5.74549 28.1431C6.63736 28.4879 7.65508 28.7286 9.14336 28.7943C10.6371 28.8599 11.1131 28.8763 14.9159 28.8763C18.7187 28.8763 19.1947 28.8599 20.6885 28.7943C22.1767 28.7286 23.1999 28.4879 24.0863 28.1431C25.0056 27.7875 25.788 27.306 26.565 26.529C27.3419 25.7521 27.8234 24.9696 28.1791 24.0504C28.5238 23.1585 28.7645 22.1408 28.8302 20.6525C28.8959 19.1588 28.9123 18.6827 28.9123 14.88C28.9123 11.0772 28.8959 10.6012 28.8302 9.10743C28.7645 7.61915 28.5238 6.59596 28.1791 5.70956C27.8344 4.77939 27.3583 3.99695 26.5759 3.21998C25.7989 2.44301 25.0165 1.96151 24.0973 1.60585C23.2054 1.26114 22.1877 1.02039 20.6994 0.954733C19.2002 0.883602 18.7241 0.867188 14.9214 0.867188Z" fill="#FFFCF2"/>
<path d="M14.9217 7.67969C10.9493 7.67969 7.72656 10.9025 7.72656 14.8749C7.72656 18.8472 10.9493 22.07 14.9217 22.07C18.8941 22.07 22.1169 18.8472 22.1169 14.8749C22.1169 10.9025 18.8941 7.67969 14.9217 7.67969ZM14.9217 19.5421C12.3446 19.5421 10.2544 17.452 10.2544 14.8749C10.2544 12.2977 12.3446 10.2076 14.9217 10.2076C17.4989 10.2076 19.589 12.2977 19.589 14.8749C19.589 17.452 17.4989 19.5421 14.9217 19.5421Z" fill="#FFFCF2"/>
<path d="M24.0812 7.39072C24.0812 8.3209 23.3262 9.07051 22.4015 9.07051C21.4713 9.07051 20.7217 8.31543 20.7217 7.39072C20.7217 6.46055 21.4768 5.71094 22.4015 5.71094C23.3262 5.71094 24.0812 6.46602 24.0812 7.39072Z" fill="#FFFCF2"/>
</g>
<defs>
<clipPath id="clip0_4303_7170">
<rect width="28.0146" height="28.0146" fill="white" transform="translate(0.914062 0.867188)"/>
</clipPath>
</defs>
</svg>
