<?xml version="1.0"?>
<svg xmlns="http://www.w3.org/2000/svg" width="1441" height="1301" viewBox="0 0 1441 1301" fill="none">
<g clip-path="url(#clip0_4303_7044)">
<rect width="1440" height="1300" transform="translate(0.928223 0.765625)" fill="#FFFCF2"/>
<path d="M-594.884 1122.18C-586.846 1113.17 -580.354 1102.96 -573.658 1092.64C-540.046 1040.85 -507.426 988.738 -470.743 939.546C-394.329 837.073 -311.341 735.39 -215.387 655.333C-166.247 614.334 -113.123 580.231 -57.4769 551.589C19.3542 512.044 102.298 472.547 186.945 460.454C256.908 450.458 332.886 455.257 387.951 509.444C425.464 546.359 422.68 599.819 414.644 651.37C404.491 716.498 377.824 784.55 344.855 839.045C297.451 917.399 208.939 962.56 130.021 987.816C113.582 993.076 89.4929 1000.63 72.4528 993.759C64.6808 990.625 51.1731 978.291 54.7644 967.643C74.0081 910.588 137.257 896.466 184.373 888.035C297.231 867.839 411.294 889.729 524.956 877.588C598.718 869.709 667.788 853.777 737.86 826.977C784.651 809.082 835.956 785.461 874.222 749.35C916.441 709.509 950.402 639.414 906.705 585.45C862.508 530.869 784.898 567.053 741.72 604.902C719.523 624.359 692.214 661.177 691.066 694.597C689.629 736.464 723.272 766.009 752.976 783.211C827.276 826.239 913.915 837.901 990.966 874.707C1034.13 895.325 1073.27 919.788 1106.42 957.557C1171.46 1031.65 1160.48 1130.49 1094.2 1199.26C1051.24 1243.84 989.998 1262.55 938.222 1290.76C912.899 1304.56 862.234 1328.36 869.398 1370.01C879.149 1426.7 951.698 1453.83 992.574 1470.51C1062.22 1498.93 1131.71 1520.85 1205.16 1533.19C1330.99 1554.33 1489.57 1539.91 1584.65 1433.41" stroke="#EEEADE" stroke-width="4" stroke-linecap="round"/>
</g>
<defs>
<clipPath id="clip0_4303_7044">
<rect width="1440" height="1300" fill="white" transform="translate(0.928223 0.765625)"/>
</clipPath>
</defs>
</svg>
