<?xml version="1.0"?>
<svg xmlns="http://www.w3.org/2000/svg" width="283" height="48" viewBox="0 0 283 48" fill="none">
<path d="M4.81622 46.395C3.98422 46.395 3.23222 46.027 2.56022 45.291C1.88822 44.587 1.40822 43.611 1.12022 42.363C0.960223 41.691 0.896223 40.907 0.928223 40.011C0.928223 39.147 1.05622 38.219 1.31222 37.227C1.60022 36.235 2.01622 35.227 2.56022 34.203C3.10422 33.147 3.85622 32.123 4.81622 31.131C4.33622 29.755 3.87222 28.363 3.42422 26.955C3.00822 25.547 2.70422 24.187 2.51222 22.875C2.32022 21.531 2.28822 20.251 2.41622 19.035C2.54422 17.819 2.92822 16.731 3.56822 15.771C4.30422 14.587 5.26422 13.499 6.44822 12.507C7.63222 11.515 8.91222 10.651 10.2882 9.915C11.6962 9.179 13.1522 8.571 14.6562 8.091C16.1922 7.579 17.6802 7.243 19.1202 7.083C20.5922 6.891 21.9522 6.859 23.2002 6.987C24.4482 7.115 25.5042 7.419 26.3682 7.899C26.7202 8.091 27.0722 8.363 27.4242 8.715C27.8082 9.067 28.0962 9.515 28.2882 10.059C28.5122 10.603 28.5922 11.259 28.5282 12.027C28.4642 12.795 28.1762 13.707 27.6642 14.763C27.6002 14.891 27.4882 14.987 27.3282 15.051C27.2002 15.083 27.0722 15.067 26.9442 15.003C26.7842 14.939 26.6882 14.843 26.6562 14.715C26.6242 14.555 26.6402 14.411 26.7042 14.283C27.9522 11.691 27.6642 9.867 25.8402 8.811C25.0402 8.363 24.0482 8.091 22.8642 7.995C21.7122 7.899 20.4642 7.947 19.1202 8.139C17.7762 8.331 16.3842 8.667 14.9442 9.147C13.5042 9.627 12.1282 10.219 10.8162 10.923C9.50422 11.627 8.28822 12.443 7.16822 13.371C6.04822 14.267 5.15222 15.259 4.48022 16.347C3.93622 17.211 3.60022 18.187 3.47222 19.275C3.37622 20.331 3.40822 21.467 3.56822 22.683C3.72822 23.867 4.00022 25.115 4.38422 26.427C4.76822 27.707 5.18422 28.987 5.63222 30.267C6.84822 29.147 8.32022 28.123 10.0482 27.195C11.8082 26.235 13.9362 25.435 16.4322 24.795C16.7842 24.731 17.0082 24.859 17.1042 25.179C17.1682 25.531 17.0402 25.755 16.7202 25.851C14.2242 26.491 12.0962 27.307 10.3362 28.299C8.60822 29.259 7.16822 30.299 6.01622 31.419L6.44822 32.475C6.89622 33.755 7.31222 34.971 7.69622 36.123C8.11222 37.307 8.43222 38.411 8.65622 39.435C8.88022 40.459 8.97622 41.387 8.94422 42.219C8.94422 43.083 8.75222 43.835 8.36822 44.475C7.79222 45.499 6.78422 46.123 5.34422 46.347C5.21622 46.379 5.04022 46.395 4.81622 46.395ZM5.20022 32.283C4.43222 33.179 3.80822 34.075 3.32822 34.971C2.88022 35.899 2.54422 36.795 2.32022 37.659C2.12822 38.523 2.01622 39.339 1.98422 40.107C1.98422 40.875 2.04822 41.547 2.17622 42.123C2.43222 43.179 2.83222 43.995 3.37622 44.571C3.92022 45.147 4.51222 45.387 5.15222 45.291C6.27222 45.099 7.02422 44.651 7.40822 43.947C7.72822 43.435 7.87222 42.779 7.84022 41.979C7.84022 41.179 7.72822 40.299 7.50422 39.339C7.28022 38.379 6.97622 37.339 6.59222 36.219C6.20822 35.131 5.80822 34.011 5.39222 32.859C5.32822 32.603 5.26422 32.411 5.20022 32.283ZM28.3981 25.131C28.6861 24.907 28.9421 24.955 29.1661 25.275C29.2301 25.403 29.2461 25.547 29.2141 25.707C29.2141 25.835 29.1501 25.931 29.0221 25.995C28.9581 26.059 28.5581 26.347 27.8221 26.859C27.0861 27.371 26.1901 27.915 25.1341 28.491C24.0781 29.067 22.9421 29.595 21.7261 30.075C20.5421 30.555 19.4541 30.795 18.4621 30.795C18.2061 30.795 17.9821 30.779 17.7901 30.747C17.5981 30.715 17.3901 30.667 17.1661 30.603C16.3341 30.315 15.8221 29.691 15.6301 28.731C15.5341 28.219 15.5501 27.659 15.6781 27.051C15.8061 26.443 16.0141 25.851 16.3021 25.275C16.5581 24.699 16.8781 24.155 17.2621 23.643C17.6461 23.131 18.0461 22.715 18.4621 22.395C19.0381 21.915 19.5501 21.659 19.9981 21.627C20.4781 21.563 20.8621 21.595 21.1501 21.723C21.5661 21.883 21.7741 22.187 21.7741 22.635C21.7421 22.955 21.5821 23.291 21.2941 23.643C21.0061 23.963 20.6381 24.283 20.1901 24.603C19.7741 24.891 19.2941 25.163 18.7501 25.419C18.2061 25.675 17.6621 25.883 17.1181 26.043C16.7341 26.971 16.5901 27.803 16.6861 28.539C16.7821 29.083 17.0701 29.419 17.5501 29.547C18.2221 29.803 19.0541 29.787 20.0461 29.499C21.0701 29.211 22.1101 28.811 23.1661 28.299C24.2221 27.755 25.2141 27.195 26.1421 26.619C27.1021 26.011 27.8541 25.515 28.3981 25.131ZM19.1341 23.211C18.8781 23.403 18.6541 23.627 18.4621 23.883C18.2701 24.107 18.0781 24.347 17.8861 24.603C18.6221 24.283 19.2301 23.947 19.7101 23.595C20.2221 23.211 20.5421 22.907 20.6701 22.683C20.6061 22.683 20.5581 22.683 20.5261 22.683C20.4941 22.651 20.4461 22.635 20.3821 22.635C20.1261 22.635 19.8861 22.699 19.6621 22.827C19.4701 22.923 19.2941 23.051 19.1341 23.211ZM24.413 34.731C24.349 34.731 24.253 34.699 24.125 34.635C23.869 34.507 23.805 34.267 23.933 33.915L28.397 25.275C28.461 25.147 28.557 25.067 28.685 25.035C28.845 25.003 28.989 25.019 29.117 25.083C29.469 25.211 29.549 25.451 29.357 25.803L27.005 30.411C27.709 29.643 28.493 28.843 29.357 28.011C30.253 27.147 31.149 26.363 32.045 25.659C32.973 24.955 33.901 24.363 34.829 23.883C35.757 23.403 36.621 23.147 37.421 23.115C38.445 23.083 39.309 23.435 40.013 24.171C40.237 24.459 40.221 24.715 39.965 24.939C39.869 25.035 39.741 25.083 39.581 25.083C39.421 25.083 39.293 25.035 39.197 24.939C38.749 24.427 38.173 24.187 37.469 24.219C36.701 24.251 35.853 24.523 34.925 25.035C34.029 25.547 33.117 26.187 32.189 26.955C31.261 27.691 30.349 28.507 29.453 29.403C28.589 30.267 27.821 31.083 27.149 31.851C26.477 32.587 25.933 33.211 25.517 33.723C25.069 34.235 24.845 34.507 24.845 34.539C24.717 34.667 24.573 34.731 24.413 34.731ZM54.2731 25.131C54.5611 24.907 54.8171 24.955 55.0411 25.275C55.1051 25.403 55.1211 25.547 55.0891 25.707C55.0891 25.835 55.0251 25.931 54.8971 25.995C54.8331 26.059 54.4331 26.347 53.6971 26.859C52.9611 27.371 52.0651 27.915 51.0091 28.491C49.9531 29.067 48.8171 29.595 47.6011 30.075C46.4171 30.555 45.3291 30.795 44.3371 30.795C44.0811 30.795 43.8571 30.779 43.6651 30.747C43.4731 30.715 43.2651 30.667 43.0411 30.603C42.2091 30.315 41.6971 29.691 41.5051 28.731C41.4091 28.219 41.4251 27.659 41.5531 27.051C41.6811 26.443 41.8891 25.851 42.1771 25.275C42.4331 24.699 42.7531 24.155 43.1371 23.643C43.5211 23.131 43.9211 22.715 44.3371 22.395C44.9131 21.915 45.4251 21.659 45.8731 21.627C46.3531 21.563 46.7371 21.595 47.0251 21.723C47.4411 21.883 47.6491 22.187 47.6491 22.635C47.6171 22.955 47.4571 23.291 47.1691 23.643C46.8811 23.963 46.5131 24.283 46.0651 24.603C45.6491 24.891 45.1691 25.163 44.6251 25.419C44.0811 25.675 43.5371 25.883 42.9931 26.043C42.6091 26.971 42.4651 27.803 42.5611 28.539C42.6571 29.083 42.9451 29.419 43.4251 29.547C44.0971 29.803 44.9291 29.787 45.9211 29.499C46.9451 29.211 47.9851 28.811 49.0411 28.299C50.0971 27.755 51.0891 27.195 52.0171 26.619C52.9771 26.011 53.7291 25.515 54.2731 25.131ZM45.0091 23.211C44.7531 23.403 44.5291 23.627 44.3371 23.883C44.1451 24.107 43.9531 24.347 43.7611 24.603C44.4971 24.283 45.1051 23.947 45.5851 23.595C46.0971 23.211 46.4171 22.907 46.5451 22.683C46.4811 22.683 46.4331 22.683 46.4011 22.683C46.3691 22.651 46.3211 22.635 46.2571 22.635C46.0011 22.635 45.7611 22.699 45.5371 22.827C45.3451 22.923 45.1691 23.051 45.0091 23.211ZM50.192 34.731C50.16 34.731 50.08 34.699 49.952 34.635C49.696 34.539 49.6 34.331 49.664 34.011C50.016 32.923 50.448 31.867 50.96 30.843C51.44 29.787 51.92 28.859 52.4 28.059C52.88 27.227 53.296 26.571 53.648 26.091C54 25.579 54.192 25.291 54.224 25.227C54.288 25.099 54.384 25.035 54.512 25.035C54.672 25.003 54.816 25.019 54.944 25.083C55.264 25.307 55.312 25.563 55.088 25.851C55.088 25.851 54.976 26.011 54.752 26.331C54.56 26.619 54.304 27.019 53.984 27.531C53.664 28.043 53.312 28.635 52.928 29.307C52.544 29.979 52.176 30.699 51.824 31.467C52.688 30.539 53.696 29.467 54.848 28.251C56 27.035 57.168 25.899 58.352 24.843C59.568 23.787 60.72 22.907 61.808 22.203C62.928 21.499 63.856 21.179 64.592 21.243C64.848 21.275 65.056 21.355 65.216 21.483C65.376 21.579 65.488 21.691 65.552 21.819C65.872 22.299 65.92 22.955 65.696 23.787C65.504 24.619 65.232 25.547 64.88 26.571C64.784 26.891 64.656 27.275 64.496 27.723C64.368 28.139 64.256 28.539 64.16 28.923C64.064 29.307 64 29.659 63.968 29.979C63.968 30.267 64.032 30.427 64.16 30.459C64.576 30.651 65.184 30.603 65.984 30.315C66.816 29.995 67.712 29.563 68.672 29.019C69.632 28.443 70.592 27.803 71.552 27.099C72.544 26.395 73.408 25.739 74.144 25.131C74.24 25.035 74.352 25.003 74.48 25.035C74.64 25.035 74.768 25.083 74.864 25.179C75.088 25.467 75.072 25.723 74.816 25.947C74.688 26.075 74.384 26.331 73.904 26.715C73.456 27.067 72.896 27.483 72.224 27.963C71.552 28.443 70.816 28.939 70.016 29.451C69.248 29.931 68.48 30.363 67.712 30.747C66.944 31.099 66.208 31.355 65.504 31.515C64.8 31.675 64.208 31.659 63.728 31.467C63.376 31.339 63.136 31.099 63.008 30.747C62.912 30.395 62.896 29.995 62.96 29.547C63.024 29.067 63.136 28.555 63.296 28.011C63.488 27.435 63.68 26.843 63.872 26.235C64 25.883 64.128 25.515 64.256 25.131C64.384 24.747 64.48 24.379 64.544 24.027C64.64 23.643 64.704 23.307 64.736 23.019C64.768 22.731 64.736 22.523 64.64 22.395H64.592C64.56 22.395 64.528 22.395 64.496 22.395C64.496 22.363 64.48 22.347 64.448 22.347C63.84 22.315 62.96 22.699 61.808 23.499C60.688 24.299 59.456 25.323 58.112 26.571C56.8 27.787 55.472 29.115 54.128 30.555C52.784 31.995 51.616 33.323 50.624 34.539C50.496 34.667 50.352 34.731 50.192 34.731ZM86.1481 25.131C86.4361 24.907 86.6921 24.955 86.9161 25.275C86.9801 25.403 86.9961 25.547 86.9641 25.707C86.9641 25.835 86.9001 25.931 86.7721 25.995C86.7081 26.059 86.3081 26.347 85.5721 26.859C84.8361 27.371 83.9401 27.915 82.8841 28.491C81.8281 29.067 80.6921 29.595 79.4761 30.075C78.2921 30.555 77.2041 30.795 76.2121 30.795C75.9561 30.795 75.7321 30.779 75.5401 30.747C75.3481 30.715 75.1401 30.667 74.9161 30.603C74.0841 30.315 73.5721 29.691 73.3801 28.731C73.2841 28.219 73.3001 27.659 73.4281 27.051C73.5561 26.443 73.7641 25.851 74.0521 25.275C74.3081 24.699 74.6281 24.155 75.0121 23.643C75.3961 23.131 75.7961 22.715 76.2121 22.395C76.7881 21.915 77.3001 21.659 77.7481 21.627C78.2281 21.563 78.6121 21.595 78.9001 21.723C79.3161 21.883 79.5241 22.187 79.5241 22.635C79.4921 22.955 79.3321 23.291 79.0441 23.643C78.7561 23.963 78.3881 24.283 77.9401 24.603C77.5241 24.891 77.0441 25.163 76.5001 25.419C75.9561 25.675 75.4121 25.883 74.8681 26.043C74.4841 26.971 74.3401 27.803 74.4361 28.539C74.5321 29.083 74.8201 29.419 75.3001 29.547C75.9721 29.803 76.8041 29.787 77.7961 29.499C78.8201 29.211 79.8601 28.811 80.9161 28.299C81.9721 27.755 82.9641 27.195 83.8921 26.619C84.8521 26.011 85.6041 25.515 86.1481 25.131ZM76.8841 23.211C76.6281 23.403 76.4041 23.627 76.2121 23.883C76.0201 24.107 75.8281 24.347 75.6361 24.603C76.3721 24.283 76.9801 23.947 77.4601 23.595C77.9721 23.211 78.2921 22.907 78.4201 22.683C78.3561 22.683 78.3081 22.683 78.2761 22.683C78.2441 22.651 78.1961 22.635 78.1321 22.635C77.8761 22.635 77.6361 22.699 77.4121 22.827C77.2201 22.923 77.0441 23.051 76.8841 23.211ZM135.189 1.179C135.541 1.243 135.685 1.451 135.621 1.803C135.301 3.531 134.597 5.515 133.509 7.755C132.453 9.963 131.157 12.283 129.621 14.715C128.117 17.115 126.421 19.547 124.533 22.011C122.677 24.475 120.773 26.811 118.821 29.019C116.901 31.195 114.981 33.163 113.061 34.923C111.173 36.715 109.445 38.139 107.877 39.195C105.989 40.443 104.469 41.067 103.317 41.067C103.061 41.067 102.869 41.051 102.741 41.019C101.973 40.827 101.365 40.395 100.917 39.723C100.469 38.987 100.277 37.963 100.341 36.651C100.405 35.371 100.613 33.931 100.965 32.331C101.317 30.699 101.765 28.971 102.309 27.147C102.885 25.291 103.477 23.435 104.085 21.579C104.565 20.075 105.045 18.555 105.525 17.019C106.037 15.451 106.453 14.011 106.773 12.699C107.093 11.387 107.285 10.267 107.349 9.339C107.413 8.379 107.269 7.739 106.917 7.419C106.565 7.131 106.133 6.987 105.621 6.987C105.141 6.987 104.597 7.099 103.989 7.323C103.413 7.547 102.805 7.835 102.165 8.187C101.557 8.539 100.965 8.923 100.389 9.339C99.8127 9.755 99.2847 10.171 98.8047 10.587C98.3247 10.971 97.9407 11.291 97.6527 11.547C97.3647 11.771 97.1087 11.755 96.8847 11.499C96.6287 11.243 96.6447 11.003 96.9327 10.779C97.0607 10.651 97.3327 10.395 97.7487 10.011C98.1967 9.627 98.7247 9.211 99.3327 8.763C99.9727 8.283 100.661 7.819 101.397 7.371C102.165 6.923 102.917 6.571 103.653 6.315C104.421 6.027 105.141 5.899 105.813 5.931C106.517 5.931 107.125 6.155 107.637 6.603C108.085 7.019 108.341 7.659 108.405 8.523C108.469 9.355 108.373 10.427 108.117 11.739C107.861 13.019 107.461 14.507 106.917 16.203C106.405 17.899 105.813 19.803 105.141 21.915C104.565 23.643 104.005 25.403 103.461 27.195C102.917 28.955 102.453 30.619 102.069 32.187C101.717 33.755 101.493 35.147 101.397 36.363C101.333 37.611 101.493 38.555 101.877 39.195C102.133 39.611 102.485 39.867 102.933 39.963C103.285 40.027 103.781 39.963 104.421 39.771C105.093 39.611 106.037 39.131 107.253 38.331C108.821 37.307 110.533 35.915 112.389 34.155C114.245 32.395 116.133 30.443 118.053 28.299C119.973 26.123 121.845 23.835 123.669 21.435C125.525 19.003 127.205 16.603 128.709 14.235C130.213 11.867 131.477 9.595 132.501 7.419C133.557 5.243 134.245 3.307 134.565 1.611C134.629 1.195 134.837 1.051 135.189 1.179ZM126.387 32.283C125.939 32.251 125.603 32.155 125.379 31.995C125.155 31.803 124.995 31.627 124.899 31.467C124.707 31.051 124.707 30.523 124.899 29.883C125.091 29.243 125.363 28.619 125.715 28.011C126.035 27.371 126.371 26.795 126.723 26.283C127.075 25.739 127.331 25.371 127.491 25.179C127.715 24.891 127.971 24.859 128.259 25.083C128.547 25.307 128.579 25.563 128.355 25.851C127.971 26.331 127.619 26.843 127.299 27.387C126.947 27.899 126.659 28.395 126.435 28.875C126.179 29.355 126.003 29.787 125.907 30.171C125.779 30.523 125.763 30.795 125.859 30.987C125.955 31.115 126.131 31.179 126.387 31.179H126.483C127.155 31.179 127.907 31.035 128.739 30.747C129.571 30.427 130.419 30.059 131.283 29.643C132.147 29.195 132.979 28.715 133.779 28.203C134.611 27.659 135.347 27.163 135.987 26.715C136.627 26.267 137.139 25.899 137.523 25.611C137.907 25.291 138.115 25.115 138.147 25.083C138.275 25.019 138.403 24.987 138.531 24.987C138.691 24.987 138.819 25.051 138.915 25.179C139.139 25.467 139.107 25.723 138.819 25.947C138.755 25.979 138.499 26.171 138.051 26.523C137.635 26.843 137.091 27.243 136.419 27.723C135.779 28.171 135.027 28.667 134.163 29.211C133.299 29.755 132.419 30.251 131.523 30.699C130.659 31.147 129.779 31.531 128.883 31.851C128.019 32.139 127.219 32.283 126.483 32.283H126.387ZM128.547 23.259C128.387 23.195 128.307 23.147 128.307 23.115C128.243 23.083 128.211 23.003 128.211 22.875C128.211 22.811 128.291 22.731 128.451 22.635C128.707 22.475 129.043 22.363 129.459 22.299C129.619 22.267 129.731 22.283 129.795 22.347C129.891 22.379 129.939 22.491 129.939 22.683V22.779L129.843 22.875C129.779 22.939 129.715 23.003 129.651 23.067C129.619 23.131 129.587 23.195 129.555 23.259L129.411 23.403C129.347 23.435 129.235 23.451 129.075 23.451C128.819 23.387 128.643 23.323 128.547 23.259ZM168.947 15.867C168.915 15.867 168.675 15.819 168.227 15.723C167.779 15.595 167.171 15.467 166.403 15.339C165.635 15.179 164.723 15.019 163.667 14.859C162.611 14.667 161.459 14.491 160.211 14.331C159.059 16.315 157.747 18.619 156.275 21.243C154.803 23.867 153.315 26.635 151.811 29.547C150.307 32.459 148.851 35.435 147.443 38.475C146.035 41.515 144.819 44.443 143.795 47.259C143.731 47.515 143.571 47.643 143.315 47.643C143.219 47.643 143.155 47.627 143.123 47.595C142.771 47.499 142.659 47.275 142.787 46.923C143.651 44.523 144.659 42.043 145.811 39.483C146.963 36.923 148.163 34.379 149.411 31.851C150.691 29.323 151.971 26.875 153.251 24.507C154.531 22.107 155.747 19.899 156.899 17.883C156.035 18.683 155.059 19.515 153.971 20.379C152.883 21.243 151.731 22.123 150.515 23.019C149.331 23.883 148.099 24.763 146.819 25.659C145.571 26.555 144.323 27.435 143.075 28.299C142.019 29.035 140.979 29.771 139.955 30.507C138.963 31.211 138.035 31.883 137.171 32.523C137.107 32.971 137.027 33.403 136.931 33.819C136.835 34.235 136.691 34.619 136.499 34.971C135.859 36.187 135.075 37.147 134.147 37.851C133.219 38.587 132.435 38.955 131.795 38.955C131.315 38.955 130.979 38.779 130.787 38.427C130.499 37.851 130.739 37.019 131.507 35.931C131.859 35.483 132.435 34.923 133.235 34.251C134.035 33.547 135.011 32.779 136.163 31.947C136.163 31.819 136.179 31.707 136.211 31.611C136.211 31.483 136.211 31.355 136.211 31.227C136.275 30.459 136.387 29.675 136.547 28.875C136.675 28.043 136.931 27.243 137.315 26.475C137.699 25.675 138.275 24.939 139.043 24.267C139.811 23.563 140.851 22.971 142.163 22.491C142.515 22.363 142.755 22.475 142.883 22.827C142.979 23.147 142.867 23.387 142.547 23.547C141.427 23.931 140.531 24.411 139.859 24.987C139.219 25.531 138.707 26.139 138.323 26.811C137.971 27.483 137.731 28.187 137.603 28.923C137.475 29.627 137.379 30.347 137.315 31.083C138.083 30.507 138.899 29.915 139.763 29.307C140.627 28.667 141.523 28.027 142.451 27.387C144.019 26.299 145.635 25.163 147.299 23.979C148.995 22.763 150.595 21.579 152.099 20.427C153.635 19.243 155.011 18.123 156.227 17.067C157.443 15.979 158.371 15.003 159.011 14.139C157.539 13.947 155.987 13.787 154.355 13.659C152.723 13.531 151.091 13.467 149.459 13.467C147.859 13.467 146.291 13.531 144.755 13.659C143.251 13.787 141.859 14.027 140.579 14.379C139.331 14.731 138.227 15.211 137.267 15.819C136.307 16.427 135.587 17.179 135.107 18.075C135.011 18.267 134.851 18.363 134.627 18.363C134.595 18.363 134.563 18.363 134.531 18.363C134.499 18.331 134.451 18.315 134.387 18.315C134.259 18.251 134.179 18.155 134.147 18.027C134.083 17.867 134.083 17.707 134.147 17.547C134.691 16.523 135.491 15.675 136.547 15.003C137.571 14.331 138.771 13.803 140.147 13.419C141.523 13.035 143.011 12.763 144.611 12.603C146.243 12.443 147.907 12.379 149.603 12.411C151.331 12.411 153.043 12.491 154.739 12.651C156.467 12.779 158.099 12.939 159.635 13.131C160.691 11.307 161.539 9.883 162.179 8.859C162.851 7.835 163.203 7.291 163.235 7.227C163.299 7.099 163.395 7.019 163.523 6.987C163.683 6.955 163.827 6.987 163.955 7.083C164.083 7.147 164.163 7.259 164.195 7.419C164.227 7.547 164.211 7.675 164.147 7.803C164.115 7.835 163.795 8.347 163.187 9.339C162.611 10.299 161.827 11.611 160.835 13.275C161.987 13.435 163.043 13.611 164.003 13.803C164.995 13.963 165.859 14.123 166.595 14.283C167.331 14.411 167.923 14.523 168.371 14.619C168.819 14.715 169.091 14.779 169.187 14.811C169.347 14.843 169.459 14.923 169.523 15.051C169.619 15.147 169.635 15.275 169.571 15.435C169.507 15.787 169.299 15.931 168.947 15.867ZM135.539 34.491C135.603 34.331 135.667 34.171 135.731 34.011C135.795 33.851 135.843 33.675 135.875 33.483C135.043 34.123 134.323 34.699 133.715 35.211C133.107 35.755 132.675 36.203 132.419 36.555C132.227 36.811 132.099 37.019 132.035 37.179C131.939 37.371 131.875 37.515 131.843 37.611C131.811 37.739 131.795 37.835 131.795 37.899C131.859 37.931 132.035 37.883 132.323 37.755C132.579 37.659 132.899 37.467 133.283 37.179C133.635 36.923 134.019 36.571 134.435 36.123C134.819 35.675 135.187 35.131 135.539 34.491ZM158.706 31.035C158.066 31.035 157.618 30.923 157.362 30.699C157.074 30.443 156.882 30.219 156.786 30.027C156.626 29.707 156.578 29.355 156.642 28.971C156.674 28.555 156.786 28.155 156.978 27.771C157.138 27.355 157.362 26.955 157.65 26.571C157.906 26.155 158.194 25.787 158.514 25.467C159.25 24.763 160.002 24.299 160.77 24.075C161.57 23.851 162.306 23.899 162.978 24.219C163.138 24.283 163.234 24.395 163.266 24.555C163.33 24.683 163.33 24.811 163.266 24.939C163.106 25.259 162.866 25.355 162.546 25.227C162.194 25.067 161.842 25.019 161.49 25.083C161.17 25.115 160.85 25.211 160.53 25.371C160.242 25.499 159.986 25.659 159.762 25.851C159.538 26.011 159.378 26.139 159.282 26.235C158.642 26.875 158.194 27.515 157.938 28.155C157.682 28.795 157.634 29.275 157.794 29.595C157.954 29.883 158.322 30.011 158.898 29.979C159.474 29.947 160.13 29.691 160.866 29.211C161.602 28.699 162.354 28.107 163.122 27.435C163.89 26.731 164.642 26.011 165.378 25.275C166.114 24.507 166.754 23.835 167.298 23.259C168.13 22.331 168.674 21.771 168.93 21.579C169.218 21.355 169.49 21.323 169.746 21.483C170.002 21.643 170.066 21.867 169.938 22.155C169.842 22.443 169.714 22.747 169.554 23.067C168.914 24.283 168.594 25.419 168.594 26.475C168.594 27.499 168.818 28.171 169.266 28.491C169.682 28.779 170.37 28.731 171.33 28.347C172.322 27.931 173.586 26.891 175.122 25.227C175.346 24.971 175.602 24.955 175.89 25.179C176.146 25.435 176.162 25.691 175.938 25.947C174.882 27.067 173.954 27.915 173.154 28.491C172.354 29.035 171.65 29.403 171.042 29.595C170.466 29.787 169.97 29.835 169.554 29.739C169.17 29.643 168.866 29.515 168.642 29.355C168.002 28.907 167.618 28.219 167.49 27.291C167.394 26.331 167.538 25.291 167.922 24.171C167.314 24.811 166.626 25.531 165.858 26.331C165.122 27.099 164.354 27.835 163.554 28.539C162.754 29.211 161.954 29.787 161.154 30.267C160.354 30.747 159.618 31.003 158.946 31.035H158.706ZM213.501 1.803C215.165 2.347 216.461 2.971 217.389 3.675C218.317 4.347 218.989 5.051 219.405 5.787C219.853 6.523 220.109 7.243 220.173 7.947C220.237 8.619 220.221 9.211 220.125 9.723C219.805 11.419 218.893 13.115 217.389 14.811C215.885 16.507 213.965 18.091 211.629 19.563C209.293 21.003 206.621 22.251 203.613 23.307C200.605 24.363 197.421 25.099 194.061 25.515C193.709 26.187 193.373 26.843 193.053 27.483C192.733 28.123 192.429 28.731 192.141 29.307C193.613 30.427 195.277 31.611 197.133 32.859C199.021 34.075 200.973 35.195 202.989 36.219C205.005 37.275 207.037 38.139 209.085 38.811C211.165 39.515 213.149 39.867 215.037 39.867C215.389 39.867 215.565 40.059 215.565 40.443C215.565 40.795 215.389 40.971 215.037 40.971C213.085 40.971 211.037 40.619 208.893 39.915C206.781 39.243 204.685 38.379 202.605 37.323C200.557 36.267 198.589 35.115 196.701 33.867C194.813 32.619 193.117 31.435 191.613 30.315C190.333 33.003 189.405 35.115 188.829 36.651C188.253 38.187 187.965 38.987 187.965 39.051C187.837 39.275 187.661 39.387 187.437 39.387H187.293C186.941 39.291 186.829 39.067 186.957 38.715C186.957 38.651 187.245 37.819 187.821 36.219C188.429 34.619 189.405 32.427 190.749 29.643C189.341 28.587 188.205 27.691 187.341 26.955C186.477 26.187 185.997 25.755 185.901 25.659C185.709 25.499 185.661 25.291 185.757 25.035C185.853 24.811 186.029 24.699 186.285 24.699C188.717 24.859 191.085 24.811 193.389 24.555C194.797 21.963 196.445 19.179 198.333 16.203C200.221 13.195 202.413 10.059 204.909 6.795C205.133 6.507 205.389 6.475 205.677 6.699C205.805 6.795 205.869 6.923 205.869 7.083C205.869 7.211 205.837 7.339 205.773 7.467C203.373 10.571 201.261 13.547 199.437 16.395C197.645 19.243 196.061 21.915 194.685 24.411C197.949 23.963 201.005 23.195 203.853 22.107C206.701 21.019 209.197 19.771 211.341 18.363C213.517 16.955 215.277 15.483 216.621 13.947C217.965 12.379 218.765 10.907 219.021 9.531C219.213 8.571 219.149 7.739 218.829 7.035C218.541 6.299 218.093 5.659 217.485 5.115C216.909 4.571 216.237 4.123 215.469 3.771C214.701 3.387 213.933 3.067 213.165 2.811C212.077 2.459 210.845 2.331 209.469 2.427C208.125 2.523 206.717 2.763 205.245 3.147C203.773 3.531 202.285 4.043 200.781 4.683C199.309 5.323 197.901 6.043 196.557 6.843C195.245 7.611 194.061 8.411 193.005 9.243C191.949 10.075 191.117 10.891 190.509 11.691C190.285 11.979 190.029 12.011 189.741 11.787C189.613 11.723 189.533 11.611 189.501 11.451C189.501 11.291 189.549 11.163 189.645 11.067C190.285 10.203 191.149 9.323 192.237 8.427C193.357 7.531 194.605 6.683 195.981 5.883C197.389 5.083 198.861 4.347 200.397 3.675C201.965 3.003 203.517 2.475 205.053 2.091C206.621 1.675 208.125 1.435 209.565 1.371C211.037 1.307 212.349 1.451 213.501 1.803ZM192.765 25.659C191.933 25.755 191.101 25.819 190.269 25.851C189.437 25.883 188.605 25.883 187.773 25.851C188.189 26.203 188.685 26.619 189.261 27.099C189.837 27.579 190.493 28.091 191.229 28.635L192.765 25.659ZM221.992 25.131C222.28 24.907 222.536 24.955 222.76 25.275C222.824 25.403 222.84 25.547 222.808 25.707C222.808 25.835 222.744 25.931 222.616 25.995C222.552 26.059 222.152 26.347 221.416 26.859C220.68 27.371 219.784 27.915 218.728 28.491C217.672 29.067 216.536 29.595 215.32 30.075C214.136 30.555 213.048 30.795 212.056 30.795C211.8 30.795 211.576 30.779 211.384 30.747C211.192 30.715 210.984 30.667 210.76 30.603C209.928 30.315 209.416 29.691 209.224 28.731C209.128 28.219 209.144 27.659 209.272 27.051C209.4 26.443 209.608 25.851 209.896 25.275C210.152 24.699 210.472 24.155 210.856 23.643C211.24 23.131 211.64 22.715 212.056 22.395C212.632 21.915 213.144 21.659 213.592 21.627C214.072 21.563 214.456 21.595 214.744 21.723C215.16 21.883 215.368 22.187 215.368 22.635C215.336 22.955 215.176 23.291 214.888 23.643C214.6 23.963 214.232 24.283 213.784 24.603C213.368 24.891 212.888 25.163 212.344 25.419C211.8 25.675 211.256 25.883 210.712 26.043C210.328 26.971 210.184 27.803 210.28 28.539C210.376 29.083 210.664 29.419 211.144 29.547C211.816 29.803 212.648 29.787 213.64 29.499C214.664 29.211 215.704 28.811 216.76 28.299C217.816 27.755 218.808 27.195 219.736 26.619C220.696 26.011 221.448 25.515 221.992 25.131ZM212.728 23.211C212.472 23.403 212.248 23.627 212.056 23.883C211.864 24.107 211.672 24.347 211.48 24.603C212.216 24.283 212.824 23.947 213.304 23.595C213.816 23.211 214.136 22.907 214.264 22.683C214.2 22.683 214.152 22.683 214.12 22.683C214.088 22.651 214.04 22.635 213.976 22.635C213.72 22.635 213.48 22.699 213.256 22.827C213.064 22.923 212.888 23.051 212.728 23.211ZM218.295 39.051C217.847 39.051 217.447 38.955 217.095 38.763C216.743 38.571 216.487 38.299 216.327 37.947C216.167 37.691 216.087 37.275 216.087 36.699C216.055 36.123 216.343 35.419 216.951 34.587C217.751 33.499 218.951 32.331 220.551 31.083C220.583 30.219 220.679 29.355 220.839 28.491C220.967 27.595 221.223 26.747 221.607 25.947C221.991 25.147 222.519 24.411 223.191 23.739C223.863 23.067 224.759 22.539 225.879 22.155C226.199 22.059 226.423 22.171 226.551 22.491C226.647 22.843 226.535 23.067 226.215 23.163C225.351 23.483 224.631 23.899 224.055 24.411C223.479 24.891 223.015 25.451 222.663 26.091C222.343 26.699 222.119 27.371 221.991 28.107C221.831 28.811 221.719 29.531 221.655 30.267C222.647 29.563 223.719 28.907 224.871 28.299C226.023 27.659 227.191 27.099 228.375 26.619C229.559 26.107 230.727 25.691 231.879 25.371C233.063 25.019 234.183 24.795 235.239 24.699C235.399 24.667 235.527 24.699 235.623 24.795C235.751 24.891 235.831 25.019 235.863 25.179C235.863 25.339 235.815 25.483 235.719 25.611C235.623 25.707 235.495 25.755 235.335 25.755C234.279 25.851 233.143 26.091 231.927 26.475C230.711 26.827 229.495 27.275 228.279 27.819C227.095 28.331 225.927 28.923 224.775 29.595C223.623 30.267 222.567 30.955 221.607 31.659C221.607 31.851 221.607 32.043 221.607 32.235C221.575 32.427 221.559 32.603 221.559 32.763C221.527 33.691 221.495 34.539 221.463 35.307C221.399 36.107 221.223 36.779 220.935 37.323C220.647 37.867 220.279 38.283 219.831 38.571C219.351 38.891 218.839 39.051 218.295 39.051ZM220.503 32.523C219.319 33.483 218.439 34.379 217.863 35.211C217.159 36.107 216.967 36.843 217.287 37.419C217.479 37.803 217.815 37.995 218.295 37.995C218.999 37.995 219.559 37.611 219.975 36.843C220.199 36.395 220.343 35.803 220.407 35.067C220.439 34.363 220.471 33.595 220.503 32.763V32.523ZM234.492 32.475C234.012 32.475 233.532 32.379 233.052 32.187C232.124 31.771 231.692 30.987 231.756 29.835C231.788 29.387 231.916 28.907 232.14 28.395C232.332 27.883 232.604 27.403 232.956 26.955C233.308 26.475 233.74 26.059 234.252 25.707C234.732 25.323 235.26 25.035 235.836 24.843C235.868 24.683 235.9 24.523 235.932 24.363C235.964 24.171 236.012 23.995 236.076 23.835C236.3 23.099 236.652 22.395 237.132 21.723C237.612 21.051 238.156 20.491 238.764 20.043C239.404 19.563 240.076 19.227 240.78 19.035C241.484 18.843 242.204 18.843 242.94 19.035C243.836 19.323 244.364 19.915 244.524 20.811C244.716 21.739 244.54 22.827 243.996 24.075C243.452 25.323 242.716 26.523 241.788 27.675C242.588 27.643 243.42 27.547 244.284 27.387C245.18 27.227 246.06 27.035 246.924 26.811C247.788 26.555 248.62 26.283 249.42 25.995C250.252 25.675 251.004 25.339 251.676 24.987C251.804 24.923 251.932 24.907 252.06 24.939C252.22 24.971 252.332 25.051 252.396 25.179C252.556 25.499 252.476 25.739 252.156 25.899C251.388 26.347 250.524 26.747 249.564 27.099C248.604 27.419 247.612 27.707 246.588 27.963C245.596 28.219 244.604 28.427 243.612 28.587C242.62 28.715 241.692 28.795 240.828 28.827C240.508 29.147 240.188 29.467 239.868 29.787C239.58 30.075 239.26 30.347 238.908 30.603C237.372 31.851 235.9 32.475 234.492 32.475ZM235.788 25.995C234.956 26.379 234.268 26.971 233.724 27.771C233.18 28.539 232.892 29.243 232.86 29.883C232.796 30.555 233.02 30.987 233.532 31.179C233.916 31.371 234.332 31.451 234.78 31.419C235.228 31.355 235.66 31.243 236.076 31.083C236.492 30.891 236.892 30.683 237.276 30.459C237.66 30.203 237.98 29.963 238.236 29.739C238.62 29.451 238.988 29.131 239.34 28.779C239.02 28.747 238.716 28.699 238.428 28.635C238.172 28.571 237.932 28.507 237.708 28.443C236.588 27.995 235.948 27.179 235.788 25.995ZM241.788 19.995C241.308 19.995 240.812 20.123 240.3 20.379C239.82 20.603 239.372 20.907 238.956 21.291C238.54 21.675 238.172 22.123 237.852 22.635C237.532 23.115 237.276 23.627 237.084 24.171C237.02 24.363 236.956 24.619 236.892 24.939C236.828 25.227 236.812 25.531 236.844 25.851C236.876 26.171 236.972 26.475 237.132 26.763C237.324 27.051 237.628 27.275 238.044 27.435C238.62 27.627 239.388 27.723 240.348 27.723C240.86 27.147 241.324 26.555 241.74 25.947C242.156 25.307 242.492 24.699 242.748 24.123C243.036 23.515 243.244 22.955 243.372 22.443C243.5 21.899 243.532 21.435 243.468 21.051C243.372 20.571 243.084 20.251 242.604 20.091C242.476 20.027 242.348 19.995 242.22 19.995C242.092 19.995 241.948 19.995 241.788 19.995ZM247.679 34.731C247.615 34.731 247.519 34.699 247.391 34.635C247.135 34.507 247.071 34.267 247.199 33.915L251.663 25.275C251.727 25.147 251.823 25.067 251.951 25.035C252.111 25.003 252.255 25.019 252.383 25.083C252.735 25.211 252.815 25.451 252.623 25.803L250.271 30.411C250.975 29.643 251.759 28.843 252.623 28.011C253.519 27.147 254.415 26.363 255.311 25.659C256.239 24.955 257.167 24.363 258.095 23.883C259.023 23.403 259.887 23.147 260.687 23.115C261.711 23.083 262.575 23.435 263.279 24.171C263.503 24.459 263.487 24.715 263.231 24.939C263.135 25.035 263.007 25.083 262.847 25.083C262.687 25.083 262.559 25.035 262.463 24.939C262.015 24.427 261.439 24.187 260.735 24.219C259.967 24.251 259.119 24.523 258.191 25.035C257.295 25.547 256.383 26.187 255.455 26.955C254.527 27.691 253.615 28.507 252.719 29.403C251.855 30.267 251.087 31.083 250.415 31.851C249.743 32.587 249.199 33.211 248.783 33.723C248.335 34.235 248.111 34.507 248.111 34.539C247.983 34.667 247.839 34.731 247.679 34.731ZM282.195 13.995C282.547 14.123 282.675 14.347 282.579 14.667C282.515 14.987 282.307 15.115 281.955 15.051C281.923 15.051 281.683 15.003 281.235 14.907C280.787 14.811 280.179 14.699 279.411 14.571C278.643 14.411 277.731 14.235 276.675 14.043C275.619 13.851 274.467 13.675 273.219 13.515C272.067 15.499 270.755 17.803 269.283 20.427C267.811 23.051 266.323 25.835 264.819 28.779C263.315 31.691 261.859 34.667 260.451 37.707C259.043 40.747 257.827 43.675 256.803 46.491C256.771 46.619 256.707 46.699 256.611 46.731C256.515 46.795 256.419 46.827 256.323 46.827H256.131C255.779 46.699 255.667 46.459 255.795 46.107C256.819 43.323 258.019 40.427 259.395 37.419C260.771 34.411 262.211 31.467 263.715 28.587C265.187 25.707 266.643 22.955 268.083 20.331C269.555 17.707 270.883 15.387 272.067 13.371C269.827 13.083 267.459 12.875 264.963 12.747C262.467 12.619 260.099 12.667 257.859 12.891C255.587 13.083 253.571 13.531 251.811 14.235C250.051 14.907 248.819 15.915 248.115 17.259C248.019 17.451 247.859 17.547 247.635 17.547C247.539 17.547 247.459 17.531 247.395 17.499C247.235 17.435 247.139 17.339 247.107 17.211C247.075 17.051 247.091 16.907 247.155 16.779C247.699 15.755 248.499 14.907 249.555 14.235C250.579 13.563 251.779 13.035 253.155 12.651C254.531 12.267 256.035 11.995 257.667 11.835C259.267 11.675 260.931 11.611 262.659 11.643C264.355 11.643 266.051 11.723 267.747 11.883C269.475 12.011 271.107 12.171 272.643 12.363C273.699 10.539 274.547 9.115 275.187 8.091C275.859 7.035 276.211 6.491 276.243 6.459C276.307 6.299 276.403 6.219 276.531 6.219C276.691 6.187 276.835 6.203 276.963 6.267C277.251 6.459 277.315 6.715 277.155 7.035C277.123 7.067 276.803 7.563 276.195 8.523C275.619 9.483 274.835 10.811 273.843 12.507C276.147 12.827 278.051 13.147 279.555 13.467C281.091 13.755 281.971 13.931 282.195 13.995Z" fill="#FFFCF2"/>
</svg>
